HIERARCHY
ROOT hip
{
  OFFSET 0 0 0
  CHANNELS 6 Xposition Yposition Zposition Zrotation Yrotation Xrotation
  JOINT abdomen
  {
    OFFSET 0 20.6881 -0.73152
    CHANNELS 3 Zrotation Xrotation Yrotation
    JOINT chest
    {
      OFFSET 0 11.7043 -0.48768
      CHANNELS 3 Zrotation Xrotation Yrotation
      JOINT neck
      {
        OFFSET 0 22.1894 -2.19456
        CHANNELS 3 Zrotation Xrotation Yrotation
        JOINT head
        {
          OFFSET -0.24384 7.07133 1.2192
          CHANNELS 3 Zrotation Xrotation Yrotation
          JOINT leftEye
          {
            OFFSET 4.14528 8.04674 8.04672
            CHANNELS 3 Zrotation Xrotation Yrotation
            End Site
            {
              OFFSET 1 0 0
            }
          }
          JOINT rightEye
          {
            OFFSET -3.6576 8.04674 8.04672
            CHANNELS 3 Zrotation Xrotation Yrotation
            End Site
            {
              OFFSET 1 0 0
            }
          }
        }
      }
      JOINT rCollar
      {
        OFFSET -2.68224 19.2634 -4.8768
        CHANNELS 3 Zrotation Xrotation Yrotation
        JOINT rShldr
        {
          OFFSET -8.77824 -1.95073 1.46304
          CHANNELS 3 Zrotation Xrotation Yrotation
          JOINT rForeArm
          {
            OFFSET -28.1742 -1.7115 0.48768
            CHANNELS 3 Zrotation Xrotation Yrotation
            JOINT rHand
            {
              OFFSET -22.5879 0.773209 7.07136
              CHANNELS 3 Zrotation Xrotation Yrotation
              JOINT rThumb1
              {
                OFFSET -1.2192 -0.487915 3.41376
                CHANNELS 3 Zrotation Xrotation Yrotation
                JOINT rThumb2
                {
                  OFFSET -3.37035 -0.52449 3.41376
                  CHANNELS 3 Zrotation Xrotation Yrotation
                  End Site
                  {
                    OFFSET -1.78271 -1.18214 1.43049
                  }
                }
              }
              JOINT rIndex1
              {
                OFFSET -7.75947 0.938293 5.60832
                CHANNELS 3 Zrotation Xrotation Yrotation
                JOINT rIndex2
                {
                  OFFSET -2.54057 -0.884171 1.56538
                  CHANNELS 3 Zrotation Xrotation Yrotation
                  End Site
                  {
                    OFFSET -1.62519 -0.234802 1.16502
                  }
                }
              }
              JOINT rMid1
              {
                OFFSET -8.24714 1.18213 3.41376
                CHANNELS 3 Zrotation Xrotation Yrotation
                JOINT rMid2
                {
                  OFFSET -3.10165 -0.590103 1.0647
                  CHANNELS 3 Zrotation Xrotation Yrotation
                  End Site
                  {
                    OFFSET -2.48547 -0.328903 0.83742
                  }
                }
              }
              JOINT rRing1
              {
                OFFSET -8.82822 0.546677 1.51678
                CHANNELS 3 Zrotation Xrotation Yrotation
                JOINT rRing2
                {
                  OFFSET -2.60934 -0.819778 -0.0198488
                  CHANNELS 3 Zrotation Xrotation Yrotation
                  End Site
                  {
                    OFFSET -2.33842 -0.294052 0.168128
                  }
                }
              }
              JOINT rPinky1
              {
                OFFSET -8.27202 -0.0477905 -0.4584
                CHANNELS 3 Zrotation Xrotation Yrotation
                JOINT rPinky2
                {
                  OFFSET -1.82734 -0.647385 -0.700984
                  CHANNELS 3 Zrotation Xrotation Yrotation
                  End Site
                  {
                    OFFSET -1.69225 -0.51767 -0.607171
                  }
                }
              }
            }
          }
        }
      }
      JOINT lCollar
      {
        OFFSET 2.68224 19.2634 -4.8768
        CHANNELS 3 Zrotation Xrotation Yrotation
        JOINT lShldr
        {
          OFFSET 8.77824 -1.95073 1.46304
          CHANNELS 3 Zrotation Xrotation Yrotation
          JOINT lForeArm
          {
            OFFSET 28.1742 -1.7115 0.48768
            CHANNELS 3 Zrotation Xrotation Yrotation
            JOINT lHand
            {
              OFFSET 22.5879 0.773209 7.07136
              CHANNELS 3 Zrotation Xrotation Yrotation
              JOINT lThumb1
              {
                OFFSET 1.2192 -0.487915 3.41376
                CHANNELS 3 Zrotation Xrotation Yrotation
                JOINT lThumb2
                {
                  OFFSET 3.37035 -0.52449 3.41376
                  CHANNELS 3 Zrotation Xrotation Yrotation
                  End Site
                  {
                    OFFSET 1.78271 -1.18214 1.43049
                  }
                }
              }
              JOINT lIndex1
              {
                OFFSET 7.75947 0.938293 5.60832
                CHANNELS 3 Zrotation Xrotation Yrotation
                JOINT lIndex2
                {
                  OFFSET 2.54057 -0.884171 1.56538
                  CHANNELS 3 Zrotation Xrotation Yrotation
                  End Site
                  {
                    OFFSET 1.62519 -0.234802 1.16502
                  }
                }
              }
              JOINT lMid1
              {
                OFFSET 8.24714 1.18213 3.41376
                CHANNELS 3 Zrotation Xrotation Yrotation
                JOINT lMid2
                {
                  OFFSET 3.10165 -0.590103 1.0647
                  CHANNELS 3 Zrotation Xrotation Yrotation
                  End Site
                  {
                    OFFSET 2.48547 -0.328903 0.83742
                  }
                }
              }
              JOINT lRing1
              {
                OFFSET 8.82822 0.546677 1.51678
                CHANNELS 3 Zrotation Xrotation Yrotation
                JOINT lRing2
                {
                  OFFSET 2.60934 -0.819778 -0.0198488
                  CHANNELS 3 Zrotation Xrotation Yrotation
                  End Site
                  {
                    OFFSET 2.33842 -0.294052 0.168128
                  }
                }
              }
              JOINT lPinky1
              {
                OFFSET 8.27202 -0.0477905 -0.4584
                CHANNELS 3 Zrotation Xrotation Yrotation
                JOINT lPinky2
                {
                  OFFSET 1.82734 -0.647385 -0.700984
                  CHANNELS 3 Zrotation Xrotation Yrotation
                  End Site
                  {
                    OFFSET 1.69225 -0.51767 -0.607171
                  }
                }
              }
            }
          }
        }
      }
    }
  }
  JOINT rButtock
  {
    OFFSET -8.77824 4.35084 1.2192
    CHANNELS 3 Zrotation Xrotation Yrotation
    JOINT rThigh
    {
      OFFSET 0 -1.70687 -2.19456
      CHANNELS 3 Zrotation Xrotation Yrotation
      JOINT rShin
      {
        OFFSET 0 -36.8199 0.73152
        CHANNELS 3 Zrotation Xrotation Yrotation
        JOINT rFoot
        {
          OFFSET 0.73152 -45.1104 -5.12064
          CHANNELS 3 Zrotation Xrotation Yrotation
          End Site
          {
            OFFSET -1.1221 -3.69964 12.103
          }
        }
      }
    }
  }
  JOINT lButtock
  {
    OFFSET 8.77824 4.35084 1.2192
    CHANNELS 3 Zrotation Xrotation Yrotation
    JOINT lThigh
    {
      OFFSET 0 -1.70687 -2.19456
      CHANNELS 3 Zrotation Xrotation Yrotation
      JOINT lShin
      {
        OFFSET 0 -36.8199 0.73152
        CHANNELS 3 Zrotation Xrotation Yrotation
        JOINT lFoot
        {
          OFFSET -0.73152 -45.1104 -5.12064
          CHANNELS 3 Zrotation Xrotation Yrotation
          End Site
          {
            OFFSET 1.1221 -3.69964 12.103
          }
        }
      }
    }
  }
}
MOTION
Frames:	7
Frame Time:	0.03333
51.8509 69.1944 43.9645 34.03203 81.468803 33.762141 -13.782598 14.665494 2.988295 3.348149 -11.456134 3.30469 -9.818293 33.723264 -142.081691 27.521043 39.40919 93.669293 0.004449 0.0 0.003101 -0.001988 -0.0 0.000653 4.209348 -43.443131 -8.38325 98.261277 -22.192473 79.975025 -125.600758 -73.766794 104.368234 153.207531 -44.263886 134.743683 6.668756 -6.65884 -0.644111 -136.851842 -37.301588 121.53074 -153.455072 -21.067106 121.744778 132.87992 -69.593302 75.863674 -125.6457 49.841016 115.275245 -7.27019 26.164914 6.331548 -145.119042 0.268172 -179.211554 -156.513723 15.309644 178.980273 -26.566217 -38.86004 -25.606848 -146.793411 12.262905 -143.513 9.651475 34.83625 -11.198945 92.628046 -14.681716 -179.223084 -88.464105 -33.064434 107.439013 49.64111 40.131833 -30.520932 0.441557 0.435227 -0.070431 133.004972 -32.28859 -116.607331 35.098328 35.161328 -26.611285 159.440437 -4.255791 -111.119349 160.098025 -4.901097 -142.969222 172.304837 -31.362323 -143.655641 145.111487 -0.668643 178.919104 -12.18769 40.200692 4.427364 145.496509 13.104636 142.110302 -2.409249 0.300208 1.896684 -179.990235 75.750232 -0.006682 153.506364 10.893194 99.71364 71.767747 1.978354 -138.207062 62.14114 27.031394 16.844917 179.997442 75.748982 -0.0 -130.842903 74.990991 -47.94347 -2.787757 51.780191 145.659986 -130.944159 85.499333 27.832067
52.0514 69.0373 44.2973 33.19381 81.291251 33.438931 -11.737354 14.590657 -40.613105 8.773772 -7.049524 46.459931 -9.641663 33.768884 -142.184158 28.497488 39.850988 93.386671 -0.004091 -0.0 0.002616 0.001513 0.0 0.001423 0.133342 -0.807149 -0.178473 -80.113094 21.265171 59.251525 61.990467 14.126486 -164.710531 -178.459006 26.338514 147.373975 -2.926546 2.861739 0.521328 -152.150306 -61.74054 117.541379 -173.300991 -52.357732 120.016557 -158.397209 -16.369898 118.78474 0.048154 -0.138594 -0.025645 -42.067296 58.560236 36.09846 -145.121643 1.975131 -179.749454 -152.548297 -24.961286 -175.356342 -81.136905 -51.204098 -79.55605 4.629556 3.282378 0.003924 0.218224 1.287353 -0.288833 -120.343317 54.171144 54.908502 -29.241745 -18.732034 -118.899179 19.136575 -13.986295 2.636619 -3.517573 -3.499306 0.436451 139.360528 -43.559928 -121.422846 5.902503 8.922114 -3.637132 38.187548 42.811047 -27.529888 8.418724 20.880164 -5.644685 -91.971034 -78.560694 -62.893288 145.121513 1.121713 179.479911 149.489975 -38.766355 171.995673 146.527409 16.475114 143.011018 25.776043 -40.231141 27.020335 -179.998972 75.750125 -0.000703 154.87905 11.392182 4.770349 20.909214 74.124221 77.815889 -9.854999 17.479329 -94.59203 179.997863 75.750125 0.001758 -130.44316 74.710582 -50.57303 -17.670413 42.169364 -68.298279 -76.713911 75.777135 171.391185
52.3355 68.8434 44.7 33.095686 80.858989 33.897611 -13.324237 15.592506 3.099041 2.997629 -12.088275 2.423363 4.874042 20.028009 71.004904 -35.153547 -2.73833 -111.463486 0.000878 -0.0 -0.004248 0.001695 -0.0 -0.000569 -155.504115 -3.51461 161.838278 67.761328 20.722367 -41.942858 -100.766136 78.133753 -164.795531 -5.288749 26.185675 1.642984 175.880042 -21.257462 88.493317 -45.304181 -14.894928 1.814536 -151.351853 -17.15899 121.132654 -62.1517 57.359677 46.048554 1.279932 -3.80332 -0.680033 -163.267683 -4.70812 143.344845 -145.116306 -0.356702 -179.017025 12.164458 44.701014 -3.864459 17.868972 62.501963 12.927823 -147.933385 10.380839 -142.749629 155.445557 -3.134573 -161.757614 -153.061553 28.327318 -128.461809 13.41122 43.307214 -117.298179 12.508025 -52.832757 13.884395 -71.831182 -48.264068 -25.791277 137.655051 13.094088 -105.999691 46.207483 39.653766 -36.317815 -13.453562 -10.463231 3.397044 15.317954 32.809195 -11.207604 166.119761 -13.948787 -144.042979 145.123567 1.975118 179.749464 154.617159 -9.929192 177.893758 132.78132 -17.596765 130.28695 73.753919 -53.200748 74.009767 -0.0 0.001828 0.000437 -46.013576 -55.297172 -51.566883 -23.324349 68.477693 58.008438 52.772682 -48.895642 -27.669717 179.996623 75.750701 0.002311 -130.139959 74.715642 -50.873581 -17.654339 41.261996 -65.242228 -120.817021 75.685033 -149.5771
52.7281 68.6327 45.1834 33.345396 80.289349 34.696647 -10.806925 13.776201 -87.281912 10.023336 0.371075 91.44617 -12.926626 31.429194 -118.538458 38.99304 28.741145 70.860785 0.001141 -0.0 -0.004045 -0.004469 0.0 -0.002882 -5.825686 24.936936 6.991625 -65.992212 18.100012 30.766933 2.89429 56.314374 -124.61908 160.992046 -31.616257 140.845146 4.531715 -4.513741 -0.521609 -172.303763 -79.776249 112.049758 179.292019 -59.502064 116.315393 1.932037 22.959725 -2.753174 0.329123 -0.961459 -0.180554 80.538739 -78.00278 52.079348 -145.12259 1.974756 -179.748207 -148.246873 -43.133339 -170.572088 -125.806929 -27.875548 -123.54935 -24.852757 -40.51752 -26.818359 151.261709 17.590317 -156.536731 78.775196 9.24059 -62.238695 92.435494 29.348701 109.686478 172.126928 -62.14596 -163.732863 178.517965 -16.064824 -89.47569 138.642791 12.780336 -71.629519 -60.463147 -70.522979 -15.713414 21.784349 43.039521 -17.3383 -89.035547 -81.392865 -59.760974 -10.411508 -22.439803 1.356028 145.118964 0.267704 179.212508 6.95871 -61.109331 27.912429 -7.649726 23.805756 -6.775226 76.323653 -54.768494 75.544598 179.996438 75.750874 0.002437 156.458157 7.712848 -121.722961 -75.845876 -29.508039 -178.673728 -156.295708 -20.79153 106.729283 179.992507 75.749649 0.005127 -131.252854 73.338153 -155.66142 -38.170264 -14.435983 128.036082 30.091009 -7.489787 8.345378
53.2129 68.4626 45.765699999999995 33.116822 79.675883 34.964927 -13.315337 11.619742 180.0 -3.120021 7.772348 -175.884088 -15.011096 27.794772 -94.353791 42.472198 14.175163 51.856267 -0.002878 -0.0 0.002502 0.002736 0.0 0.00136 -130.421333 54.54978 134.28867 176.169454 -14.141458 -132.804598 -6.076629 2.271834 92.273284 -5.61625 26.658142 1.629299 -93.743358 37.963585 53.548742 25.539082 -30.56156 22.986934 -8.570396 12.509278 5.44991 86.752067 -60.298962 36.710918 3.45342 -10.534298 -1.680824 91.944441 -78.575572 62.985039 -0.021657 -1.726988 -0.542162 -35.068095 75.976889 48.358854 -3.557365 -8.516623 -3.322738 -24.1109 -41.366904 -24.964417 159.220733 -48.028679 -170.41436 -127.522876 -15.36108 176.654268 -161.568615 34.716625 -50.635673 132.118625 42.513842 -114.068073 -17.49303 -17.28104 0.029648 91.494059 29.410114 -78.409078 19.12407 24.073439 -13.344733 0.531734 12.603193 -1.852714 10.974996 25.790223 -7.639049 7.229675 26.206173 -6.057333 145.099389 -1.604882 178.623387 152.242909 -25.058166 175.334526 -5.665342 16.871579 -5.089489 141.360712 -6.453323 138.352939 179.993698 75.747807 0.004312 155.607948 8.50719 3.328342 5.473171 72.913265 29.298106 69.100525 -61.135008 -18.387493 -0.000859 -0.001043 -0.000215 9.970733 3.584614 109.577674 45.161562 -2.81308 162.623177 -5.51519 40.476204 128.041048
53.790800000000004 68.31439999999999 46.4773 32.424097 79.052354 34.832535 -13.235555 16.59579 3.306334 2.23726 -12.983946 0.401965 -15.284276 26.015651 -84.286477 42.437287 7.602873 44.808453 -0.002598 0.0 -0.002022 0.003795 0.0 0.000998 3.191639 -25.838895 -5.074559 -117.330617 14.832283 93.853148 41.801217 14.515554 -142.36767 175.605515 6.577174 147.205012 -5.131934 4.978958 1.005199 -10.682979 11.099858 12.095194 11.980827 -21.347032 -5.060886 -150.068071 -0.434692 110.056275 -10.97633 25.789825 7.639952 -11.527999 33.758225 9.268287 -145.12123 0.310141 -179.225629 11.651935 22.920508 -6.369882 6.226665 18.790047 5.571654 9.188334 22.811678 5.486619 -2.459924 -18.216393 3.668611 -49.4661 -5.691739 47.951752 113.834151 -56.652565 -95.763475 163.12294 -4.5808 -146.245683 103.199498 36.330676 -60.111177 -170.833739 -41.024439 -74.718691 151.353836 -17.1583 -121.13292 62.153821 57.359902 -46.046779 -6.531273 -20.415231 2.718012 173.514538 -34.979132 -143.820534 69.296849 72.946636 -87.016976 -3.174223 44.976255 -2.669993 151.564677 34.841992 147.117376 -0.828355 -2.613212 2.739133 -0.0 -0.000835 -0.001186 -50.514429 -59.374235 -180.0 -77.654641 -51.375982 13.527671 136.186623 36.957531 -43.591709 179.998571 75.748818 -0.0 -127.22604 76.551673 -51.789328 -16.306561 41.248794 -93.58159 -59.691275 51.804854 164.79816
54.487399999999994 68.1719 47.3312 31.056521 78.457566 34.173969 -11.11821 12.483492 -137.724176 5.494031 7.161771 139.857424 -7.283856 14.981477 -4.426016 6.862535 -30.181703 -30.635838 0.001009 -0.0 -0.004501 0.00175 -0.0 -0.000371 -155.548671 -3.804309 161.899767 111.546469 47.091787 -66.095158 -172.721636 -49.964078 56.452053 161.335502 -32.921583 140.327837 -178.927245 -16.45377 89.422333 -41.914716 -19.700644 2.655428 5.362246 -9.172031 -2.723351 -166.723984 -22.481637 109.596221 89.034682 -81.39387 59.758585 -7.593805 26.121981 6.238284 0.000944 -0.060805 -0.019407 -156.394273 -21.698163 174.397543 0.706503 1.878437 0.651847 61.428978 85.767671 -23.214908 33.84544 -85.66525 55.262665 51.367633 -9.460917 46.287966 -3.953364 -16.319242 136.140393 150.340807 25.323936 -132.038217 9.38114 8.923241 -2.151505 -31.202108 -40.793945 10.948837 46.208159 39.654162 -36.316914 117.632598 40.743806 -89.109853 36.03642 51.722725 -29.833159 -172.22131 -60.174879 -136.196379 145.122285 1.974183 179.749377 71.393304 -78.007472 92.742533 163.029228 73.433241 150.722259 -14.857501 41.834438 -6.644272 -0.007014 0.001238 -0.007014 -53.114566 -59.455325 122.874175 29.885736 -74.925017 -123.382406 -76.856123 24.908304 3.566028 -0.003597 0.001211 -0.001798 11.496092 5.664183 -97.904715 -46.947372 -12.166529 -86.268943 100.32722 56.967474 159.231478
